<?xml version="1.0" encoding="UTF-8"?>
<svg width="600" height="140" viewBox="0 0 600 140" fill="none" xmlns="http://www.w3.org/2000/svg">
  <defs>
    <linearGradient id="gtext" x1="0" y1="0" x2="0" y2="1">
      <stop offset="0%" stop-color="#2A2F37"/>
      <stop offset="100%" stop-color="#0F1114"/>
    </linearGradient>
    <filter id="softShadow" x="-20%" y="-20%" width="140%" height="140%">
      <feDropShadow dx="0" dy="1.2" stdDeviation="1.2" flood-color="#000" flood-opacity="0.18"/>
    </filter>
  </defs>

  <!-- Left emblem -->
  <g transform="translate(10,10)" filter="url(#softShadow)">
    <circle cx="50" cy="50" r="48" fill="#111318"/>
    <circle cx="50" cy="50" r="46" fill="#1E2229"/>
    <path d="M50 8 A42 42 0 0 1 92 50 Q77 48 66 57 A22 22 0 0 0 50 38 Z" fill="#00A7CF"/>
    <path d="M12 55 A38 38 0 0 0 62 88 Q52 96 50 108 A42 42 0 0 1 8 66 Z" fill="#007EA7"/>
    <circle cx="50" cy="50" r="18" fill="#0E1116"/>
  </g>

  <!-- Brand text -->
  <g transform="translate(120,36)">
    <text x="0" y="32" font-family="Inter,Segoe UI,Roboto,Helvetica,Arial,sans-serif"
          font-size="40" font-weight="700" fill="url(#gtext)" letter-spacing="0.5">
      Khuriwal<tspan font-weight="600">Group</tspan>
    </text>
    <text x="5" y="58" font-family="Inter,Segoe UI,Roboto,Helvetica,Arial,sans-serif"
          font-size="16" fill="#7D8A98" font-weight="600" letter-spacing="1.2">
      E‑Cart
    </text>
  </g>
</svg>
